<svg width="20" height="21" viewBox="0 0 20 21" fill="none" xmlns="http://www.w3.org/2000/svg">
<path d="M19.75 3V1.5C19.7495 1.10231 19.5914 0.721048 19.3102 0.439842C19.029 0.158636 18.6477 0.000454817 18.25 0H1.75C1.35231 0.000454817 0.971048 0.158636 0.689842 0.439842C0.408636 0.721048 0.250455 1.10231 0.25 1.5V3C0.250455 3.39769 0.408636 3.77895 0.689842 4.06016C0.971048 4.34136 1.35231 4.49955 1.75 4.5V13.5H1C0.801088 13.5 0.610322 13.579 0.46967 13.7197C0.329018 13.8603 0.25 14.0511 0.25 14.25C0.25 14.4489 0.329018 14.6397 0.46967 14.7803C0.610322 14.921 0.801088 15 1 15H9.25V16.629C8.74959 16.8059 8.32783 17.1541 8.05928 17.6119C7.79072 18.0697 7.69265 18.6077 7.7824 19.1308C7.87216 19.6539 8.14395 20.1285 8.54976 20.4706C8.95556 20.8127 9.46923 21.0003 10 21.0003C10.5308 21.0003 11.0444 20.8127 11.4502 20.4706C11.856 20.1285 12.1278 19.6539 12.2176 19.1308C12.3073 18.6077 12.2093 18.0697 11.9407 17.6119C11.6722 17.1541 11.2504 16.8059 10.75 16.629V15H19C19.1989 15 19.3897 14.921 19.5303 14.7803C19.671 14.6397 19.75 14.4489 19.75 14.25C19.75 14.0511 19.671 13.8603 19.5303 13.7197C19.3897 13.579 19.1989 13.5 19 13.5H18.25V4.5C18.6477 4.49955 19.029 4.34136 19.3102 4.06016C19.5914 3.77895 19.7495 3.39769 19.75 3ZM7.75 10.5C7.75 10.6989 7.67098 10.8897 7.53033 11.0303C7.38968 11.171 7.19891 11.25 7 11.25C6.80109 11.25 6.61032 11.171 6.46967 11.0303C6.32902 10.8897 6.25 10.6989 6.25 10.5V9C6.25 8.80109 6.32902 8.61032 6.46967 8.46967C6.61032 8.32902 6.80109 8.25 7 8.25C7.19891 8.25 7.38968 8.32902 7.53033 8.46967C7.67098 8.61032 7.75 8.80109 7.75 9V10.5ZM10 19.5C9.85166 19.5 9.70666 19.456 9.58332 19.3736C9.45998 19.2912 9.36386 19.1741 9.30709 19.037C9.25032 18.9 9.23547 18.7492 9.26441 18.6037C9.29335 18.4582 9.36478 18.3246 9.46967 18.2197C9.57456 18.1148 9.7082 18.0434 9.85368 18.0144C9.99917 17.9855 10.15 18.0003 10.287 18.0571C10.4241 18.1139 10.5412 18.21 10.6236 18.3333C10.706 18.4567 10.75 18.6017 10.75 18.75C10.7498 18.9488 10.6707 19.1395 10.5301 19.2801C10.3895 19.4207 10.1988 19.4998 10 19.5ZM10.75 10.5C10.75 10.6989 10.671 10.8897 10.5303 11.0303C10.3897 11.171 10.1989 11.25 10 11.25C9.80109 11.25 9.61032 11.171 9.46967 11.0303C9.32902 10.8897 9.25 10.6989 9.25 10.5V8.25C9.25 8.05109 9.32902 7.86032 9.46967 7.71967C9.61032 7.57902 9.80109 7.5 10 7.5C10.1989 7.5 10.3897 7.57902 10.5303 7.71967C10.671 7.86032 10.75 8.05109 10.75 8.25V10.5ZM13.75 10.5C13.75 10.6989 13.671 10.8897 13.5303 11.0303C13.3897 11.171 13.1989 11.25 13 11.25C12.8011 11.25 12.6103 11.171 12.4697 11.0303C12.329 10.8897 12.25 10.6989 12.25 10.5V7.5C12.25 7.30109 12.329 7.11032 12.4697 6.96967C12.6103 6.82902 12.8011 6.75 13 6.75C13.1989 6.75 13.3897 6.82902 13.5303 6.96967C13.671 7.11032 13.75 7.30109 13.75 7.5V10.5ZM1.75 3V1.5H18.25L18.2509 3H1.75Z" fill="#2E65F3"/>
</svg>
