<svg width="32" height="30" viewBox="0 0 32 30" fill="none" xmlns="http://www.w3.org/2000/svg">
<path d="M28 10.1167V11.6505H4V10.1167C4 7.66251 5.33333 6.43542 8 6.43542H24C26.6667 6.43542 28 7.66251 28 10.1167ZM28 13.4912V19.9333C28 22.3875 26.6667 23.6146 24 23.6146H8C5.33333 23.6146 4 22.3875 4 19.9333V13.4912H28ZM14.3333 18.7063C14.3333 18.1982 13.8853 17.7859 13.3333 17.7859H9.33333C8.78133 17.7859 8.33333 18.1982 8.33333 18.7063C8.33333 19.2143 8.78133 19.6266 9.33333 19.6266H13.3333C13.8853 19.6266 14.3333 19.2143 14.3333 18.7063Z" fill="white"/>
</svg>
