<svg width="15" height="18" viewBox="0 0 15 18" fill="none" xmlns="http://www.w3.org/2000/svg">
<path d="M7.50466 17.9985C6.21096 17.9985 4.91727 17.995 3.62357 18C2.93647 18.0027 2.29684 17.5428 2.11079 16.7818C2.05692 16.5614 2.04971 16.3287 2.02448 16.1013C1.98303 15.7277 1.94237 15.3539 1.90512 14.9797C1.85566 14.4829 1.8118 13.9855 1.76154 13.489C1.71207 13.0025 1.6564 12.5167 1.60573 12.0302C1.57569 11.7411 1.55186 11.4513 1.52242 11.1623C1.48497 10.7951 1.44232 10.4283 1.40567 10.0609C1.36842 9.68668 1.33758 9.31185 1.29993 8.93763C1.27149 8.65527 1.23485 8.37373 1.20561 8.09157C1.17557 7.80241 1.15154 7.51284 1.1225 7.22348C1.07704 6.771 1.02858 6.31893 0.984518 5.86625C0.97851 5.80508 0.956882 5.78366 0.899006 5.78201C0.399953 5.76862 0.00143067 5.36784 0.0018312 4.77943C0.00223172 4.15889 -0.00377613 3.53815 0.0040341 2.91761C0.00904065 2.53042 0.168449 2.2252 0.5123 2.04046C0.656889 1.96281 0.813895 1.93727 0.975506 1.93727C2.12922 1.93727 3.28273 1.93624 4.43644 1.93913C4.51294 1.93913 4.5562 1.91503 4.59625 1.84974C4.87802 1.39006 5.16139 0.931193 5.44836 0.4748C5.64162 0.167518 5.92419 0.00810971 6.27685 0.00522636C7.08371 -0.0015701 7.89056 -0.00198204 8.69742 0.00543228C9.04207 0.00852158 9.32745 0.145069 9.5227 0.455852C9.81348 0.918629 10.1121 1.37605 10.4053 1.83718C10.4501 1.90782 10.498 1.94016 10.5875 1.93995C11.7378 1.93563 12.8881 1.93707 14.0384 1.93727C14.2787 1.93727 14.4992 2.00071 14.6829 2.16609C14.8855 2.34856 14.9973 2.57964 14.9983 2.8585C15.0007 3.53053 15.0005 4.20256 14.9983 4.87479C14.9967 5.34539 14.616 5.75709 14.1576 5.77748C14.0526 5.78222 14.0272 5.81826 14.0184 5.91979C13.9855 6.29772 13.9407 6.67461 13.902 7.05213C13.8738 7.32769 13.8494 7.60367 13.8213 7.87923C13.7825 8.26025 13.7412 8.64085 13.7022 9.02166C13.6743 9.29372 13.6495 9.5662 13.6219 9.83826C13.5826 10.2226 13.5414 10.6067 13.5021 10.991C13.4743 11.2633 13.4494 11.5357 13.4218 11.8078C13.3828 12.1921 13.3413 12.5762 13.3025 12.9607C13.2738 13.2431 13.2488 13.5259 13.2201 13.8082C13.1823 14.1789 13.1416 14.5492 13.104 14.92C13.0748 15.2058 13.0511 15.4921 13.0197 15.7775C12.982 16.117 12.9554 16.4588 12.8941 16.7939C12.7916 17.3537 12.2759 17.8593 11.7312 17.9578C11.601 17.9812 11.4676 17.9965 11.3357 17.9967C10.0586 17.9996 8.78173 17.9983 7.50466 17.9983V17.9985ZM1.58991 5.78881C1.59932 5.86192 1.60834 5.92206 1.61454 5.9824C1.66861 6.51644 1.72228 7.05048 1.77555 7.58452C1.80539 7.88377 1.83283 8.18343 1.86407 8.48268C1.89271 8.75804 1.92715 9.03298 1.95479 9.30834C1.99204 9.67906 2.02308 10.0504 2.06093 10.4211C2.11059 10.9074 2.16607 11.393 2.21553 11.8793C2.2654 12.369 2.30925 12.8594 2.35932 13.3491C2.40878 13.8319 2.46446 14.3142 2.51452 14.797C2.57039 15.3343 2.63168 15.8713 2.67473 16.4096C2.71919 16.9671 3.16537 17.377 3.7179 17.3737C6.02472 17.3605 8.33154 17.3681 10.6384 17.3681C10.8883 17.3681 11.1384 17.3694 11.3883 17.3679C11.8393 17.3654 12.2258 17.0378 12.3043 16.5816C12.339 16.3802 12.3542 16.175 12.3768 15.9713C12.4073 15.6962 12.4375 15.421 12.4656 15.1455C12.504 14.768 12.5395 14.39 12.5777 14.0125C12.6057 13.7372 12.6376 13.462 12.6656 13.1867C12.7041 12.8091 12.7395 12.4312 12.778 12.0537C12.8058 11.7816 12.8376 11.51 12.8655 11.2379C12.9047 10.8536 12.9412 10.4691 12.9804 10.0848C13.0077 9.81602 13.0385 9.54787 13.0657 9.2791C13.1042 8.89809 13.14 8.51707 13.1787 8.13606C13.2065 7.86049 13.2374 7.58534 13.2662 7.30977C13.3105 6.88469 13.3549 6.4598 13.3976 6.03451C13.4056 5.9546 13.4062 5.87387 13.4104 5.7886H1.58991V5.78881ZM7.51187 5.14685C9.68872 5.14685 11.8656 5.14438 14.0424 5.15015C14.2839 5.15076 14.3901 4.98641 14.3885 4.7889C14.3831 4.16837 14.3869 3.54783 14.3863 2.92729C14.3861 2.68921 14.2675 2.5677 14.0348 2.5677C9.68111 2.56749 5.32721 2.56749 0.973504 2.5677C0.744604 2.5677 0.621843 2.69292 0.621443 2.92976C0.620241 3.5503 0.620441 4.17084 0.621443 4.79138C0.621843 5.03502 0.733589 5.14706 0.971101 5.14706C3.15136 5.14706 5.33161 5.14706 7.51167 5.14706L7.51187 5.14685ZM5.28435 1.92883H9.72136C9.70274 1.89505 9.69092 1.87116 9.6771 1.84871C9.47224 1.51713 9.26536 1.18678 9.0629 0.853754C8.97358 0.706909 8.85222 0.638327 8.683 0.638945C7.96967 0.641828 7.25633 0.644711 6.5432 0.638533C6.05896 0.634414 6.06017 0.670456 5.83367 1.04179C5.65564 1.33363 5.4742 1.62299 5.28455 1.92904L5.28435 1.92883Z" fill="#E84646"/>
<path d="M7.20306 10.9352C7.20306 9.85907 7.20306 8.78275 7.20306 7.70665C7.20306 7.55877 7.29158 7.43932 7.41814 7.41151C7.57375 7.37753 7.71774 7.43437 7.77581 7.56474C7.80125 7.62159 7.81506 7.68935 7.81526 7.75216C7.81727 9.87389 7.81707 11.9954 7.81667 14.1172C7.81667 14.2998 7.72655 14.431 7.58837 14.4586C7.41694 14.4928 7.27436 14.4236 7.22009 14.2731C7.20447 14.23 7.20346 14.1798 7.20346 14.1328C7.20266 13.067 7.20286 12.001 7.20286 10.9352H7.20306Z" fill="#E84646"/>
<path d="M5.00158 14.4611C4.82955 14.4605 4.73303 14.3528 4.72502 14.1723C4.70179 13.642 4.67335 13.1121 4.64732 12.582C4.6321 12.2706 4.61828 11.9592 4.60286 11.648C4.57142 11.0153 4.53897 10.3826 4.50713 9.7497C4.49331 9.4727 4.4801 9.19548 4.46648 8.91848C4.44665 8.51831 4.42683 8.11835 4.4068 7.71818C4.39919 7.56557 4.52035 7.44735 4.69998 7.43335C4.85419 7.4214 4.98676 7.52479 4.99457 7.67246C5.0176 8.11011 5.03542 8.54817 5.05785 8.98603C5.08809 9.57423 5.12114 10.1624 5.15198 10.7504C5.167 11.0377 5.17961 11.325 5.19383 11.6123C5.22647 12.2792 5.25932 12.9463 5.29196 13.6132C5.30037 13.7841 5.30878 13.9553 5.31479 14.1262C5.3214 14.3167 5.18482 14.4615 5.00178 14.4607L5.00158 14.4611Z" fill="#E84646"/>
<path d="M9.74079 13.9503C9.77603 13.1906 9.81048 12.4308 9.84632 11.671C9.87857 10.9902 9.91181 10.3093 9.94565 9.6284C9.9773 8.992 10.0103 8.35581 10.0426 7.71941C10.0512 7.5495 10.1744 7.43438 10.347 7.4352C10.497 7.43602 10.6215 7.553 10.6203 7.71509C10.6179 7.99601 10.6051 8.27672 10.5919 8.55723C10.5697 9.02948 10.5436 9.50153 10.5194 9.97357C10.48 10.7467 10.4401 11.5199 10.4019 12.293C10.3852 12.6283 10.373 12.9638 10.358 13.2993C10.345 13.5936 10.3338 13.8881 10.3161 14.1822C10.3047 14.3734 10.1651 14.4776 9.95827 14.4603C9.81408 14.4483 9.71816 14.3165 9.72897 14.145C9.73298 14.0799 9.73778 14.015 9.74219 13.9501C9.74179 13.9501 9.74119 13.9501 9.74079 13.9501V13.9503Z" fill="#E84646"/>
<path d="M6.24941 16.0863C6.97256 16.0863 7.69571 16.0859 8.41886 16.0865C8.60009 16.0865 8.69241 16.1516 8.73767 16.3044C8.80015 16.5153 8.67078 16.7039 8.4511 16.722C8.43127 16.7237 8.41105 16.7229 8.39122 16.7229C6.96816 16.7229 5.54529 16.7229 4.12223 16.7229C3.99386 16.7229 3.8743 16.6973 3.80361 16.5729C3.69807 16.3868 3.77798 16.0838 4.06996 16.0852C4.79651 16.0887 5.52286 16.0865 6.24941 16.0863Z" fill="#E84646"/>
<path d="M10.3193 16.0863C10.5258 16.0863 10.7323 16.0844 10.9388 16.0869C11.1288 16.0889 11.2516 16.2092 11.2576 16.3931C11.263 16.5659 11.1332 16.7171 10.9532 16.72C10.5304 16.7268 10.1073 16.727 9.68431 16.72C9.49867 16.7169 9.37971 16.574 9.38512 16.3923C9.39093 16.2016 9.50468 16.0892 9.69993 16.0871C9.9064 16.0848 10.1129 16.0867 10.3193 16.0867V16.0863Z" fill="#E84646"/>
<path d="M2.1921 3.86871C2.1921 3.97148 2.1955 4.07425 2.1913 4.17661C2.18329 4.37535 2.05873 4.50201 1.87769 4.50119C1.69545 4.50036 1.57129 4.37473 1.56648 4.17455C1.56167 3.96592 1.56147 3.75687 1.56648 3.54824C1.57149 3.34682 1.69285 3.22716 1.87969 3.22757C2.06573 3.22798 2.18409 3.34867 2.1913 3.55051C2.1951 3.65637 2.1919 3.76264 2.1919 3.86871H2.1921Z" fill="#E84646"/>
<path d="M13.4386 3.86479C13.4386 3.97457 13.4412 4.08434 13.438 4.19391C13.4328 4.38029 13.3105 4.50139 13.132 4.50119C12.9528 4.50119 12.83 4.38071 12.8268 4.19349C12.8232 3.97415 12.8234 3.75461 12.8268 3.53506C12.8298 3.3392 12.9476 3.22572 13.1376 3.22757C13.3207 3.22922 13.4336 3.34352 13.4382 3.53568C13.4408 3.64525 13.4386 3.75522 13.4386 3.86479Z" fill="#E84646"/>
<path d="M3.13674 3.85573C3.13674 3.75317 3.13534 3.65039 3.13694 3.54783C3.14014 3.34991 3.24528 3.23354 3.42371 3.22778C3.61556 3.2216 3.74533 3.33302 3.75294 3.53074C3.76155 3.75275 3.76176 3.9758 3.75254 4.19761C3.74453 4.38771 3.60555 4.50943 3.43012 4.50098C3.24508 4.49213 3.13974 4.37556 3.13674 4.17372C3.13513 4.06766 3.13654 3.96159 3.13654 3.85552L3.13674 3.85573Z" fill="#E84646"/>
<path d="M6.26403 3.85449C6.26403 3.74163 6.26263 3.62877 6.26443 3.51591C6.26664 3.36412 6.36837 3.24776 6.51096 3.23046C6.697 3.2078 6.84439 3.28565 6.85581 3.45165C6.87463 3.72268 6.86182 3.99598 6.86242 4.26846C6.86242 4.27176 6.86101 4.27505 6.86021 4.27855C6.82537 4.42354 6.6962 4.51458 6.545 4.50036C6.37798 4.48492 6.26764 4.3737 6.26463 4.21368C6.26243 4.09402 6.26423 3.97436 6.26403 3.85449Z" fill="#E84646"/>
<path d="M8.13829 3.85841C8.13829 3.75584 8.13709 3.65307 8.13849 3.55051C8.14149 3.35135 8.24523 3.23457 8.42266 3.22798C8.61511 3.22078 8.74568 3.33055 8.75409 3.52826C8.76351 3.75028 8.76291 3.97312 8.75429 4.19514C8.74688 4.38503 8.6097 4.50778 8.43408 4.50119C8.24943 4.49439 8.14149 4.37679 8.13829 4.17661C8.13649 4.07054 8.13789 3.96447 8.13789 3.85841H8.13829Z" fill="#E84646"/>
<path d="M11.2656 3.85841C11.2656 3.74204 11.2638 3.62589 11.266 3.50952C11.2688 3.36 11.3745 3.24467 11.5185 3.22984C11.702 3.21089 11.8453 3.28647 11.8566 3.44774C11.8754 3.71877 11.8636 3.99207 11.8646 4.26455C11.8646 4.27114 11.862 4.27793 11.8604 4.28452C11.8251 4.42622 11.6897 4.51725 11.5401 4.49975C11.3767 4.48059 11.2694 4.37206 11.266 4.21738C11.2634 4.09773 11.2654 3.97807 11.2654 3.8582L11.2656 3.85841Z" fill="#E84646"/>
<path d="M5.3246 3.86768C5.31599 4.0036 5.31799 4.14139 5.29576 4.27505C5.27033 4.42828 5.12875 4.51849 4.97514 4.49995C4.80572 4.47936 4.70339 4.37103 4.70239 4.20688C4.70099 3.98795 4.7096 3.76861 4.69958 3.5501C4.69037 3.35259 4.83857 3.22819 4.98456 3.22654C5.18302 3.22428 5.30518 3.33302 5.31499 3.53877C5.3202 3.64792 5.31599 3.7577 5.31599 3.86726C5.3188 3.86726 5.3216 3.86768 5.3246 3.86768Z" fill="#E84646"/>
<path d="M9.70354 3.85758C9.70354 3.75502 9.70995 3.65184 9.70214 3.54989C9.68772 3.35856 9.8313 3.23993 9.95647 3.22901C10.1495 3.21233 10.2885 3.29121 10.3025 3.47904C10.3219 3.73978 10.3171 4.00443 10.2971 4.26537C10.2847 4.42725 10.1335 4.51911 9.9763 4.49975C9.80307 4.47853 9.70514 4.36979 9.70354 4.19617C9.70354 4.18937 9.70354 4.18258 9.70354 4.17558C9.70354 4.06951 9.70354 3.96344 9.70354 3.85738V3.85758Z" fill="#E84646"/>
</svg>
